<?xml version="1.0" encoding="UTF-8"?>
<svg width="1085px" height="1808px" viewBox="0 0 1085 1808" version="1.1" xmlns="http://www.w3.org/2000/svg" xmlns:xlink="http://www.w3.org/1999/xlink">
    <!-- Generator: Sketch 57 (83077) - https://sketch.com -->
    <title>pin-a</title>
    <desc>Created with Sketch.</desc>
    <g id="Page-1" stroke="none" stroke-width="1" fill="none" fill-rule="evenodd">
        <g id="pin-letter" transform="translate(19.000000, 19.000000)">
            <path d="M524.940002,1693.62903 C486.174011,1503.328 417.824035,1344.96399 335.036987,1198.18909 C273.630005,1089.31702 202.493011,988.82605 136.673004,883.251099 C114.700989,848.007019 95.739014,810.774048 74.626007,774.197022 C32.410004,701.060059 -1.817993,616.262024 0.35701,506.265015 C2.48201,398.792054 33.565003,312.581025 78.386994,242.093018 C152.106019,126.158051 275.588013,31.104035 441.270997,6.124039 C576.737,-14.299957 703.746034,20.20604 793.814027,72.87204 C867.414064,115.910034 924.410035,173.399048 967.73401,241.152039 C1012.95398,311.868042 1044.09302,395.412049 1046.70496,504.384034 C1048.04199,560.214051 1038.90003,611.916016 1026.021,654.802003 C1012.98706,698.211061 992.025025,734.49701 973.375001,773.256044 C936.968995,848.915041 891.326051,918.238039 845.520021,987.602052 C741.47508,1145.15684 642.302252,1305.09478 576.205055,1500.19514 C555.627167,1560.93528 538.255133,1625.08353 524.940004,1693.62903 L524.940002,1693.62903 Z" id="exterior" stroke="#05348B" stroke-width="37" fill="#05348B"></path>
            <path d="M524,929 C757.064164,929 946,740.064164 946,507 C946,273.935836 757.064164,85 524,85 C290.935836,85 102,273.935836 102,507 C102,740.064164 290.935836,929 524,929 Z" id="interior" stroke="#05348B" stroke-width="39" fill="#FFC115" fill-rule="nonzero" stroke-dasharray="0"></path>
            <text id="B" font-family="Arial-BoldMT, Arial" font-size="700" font-weight="bold" fill="#05348B">
                <tspan x="294.241211" y="750">A</tspan>
            </text>
        </g>
    </g>
</svg>
